<svg width="130" height="150" viewBox="0 0 130 150" fill="none" xmlns="http://www.w3.org/2000/svg">
<rect y="38.0228" width="78.8462" height="126" rx="39.4231" transform="rotate(-28.2331 0 38.0228)" fill="#FFBA08"/>
<path d="M83.1538 73.0651C85.0128 72.6231 87.1876 71.7335 89.6782 70.3962L90.6646 78.209C86.9785 80.1882 83.3051 81.1553 79.6444 81.1101C77.0134 84.5763 73.2405 87.6289 68.3257 90.2678C56.1384 96.8117 48.4578 97.1281 45.2839 91.2171L45.0432 90.7688C42.9926 86.9499 44.7563 82.944 50.3341 78.7511C46.6765 78.2337 44.1879 76.7463 42.8685 74.2889L42.6812 73.9402C42.2711 73.1764 42.0052 72.4421 41.8835 71.7374C41.7286 71.0505 41.7385 70.2323 41.9132 69.2829C42.0701 68.3002 42.4644 67.3612 43.096 66.4659C43.7762 65.5018 44.8087 64.4767 46.1936 63.3909C47.5275 62.2896 49.2405 61.1773 51.3326 60.054L53.4746 58.9039C61.6105 54.5354 66.9267 54.6757 69.423 59.3248L69.53 59.524C69.6548 59.7565 69.763 59.9979 69.8546 60.2482L61.785 64.581C61.2679 63.618 60.5027 63.1091 59.4893 63.0543C58.458 62.9663 56.9462 63.4572 54.9537 64.527C53.2269 65.4542 52.1384 66.2954 51.6882 67.0505C51.238 67.8056 51.2001 68.5318 51.5745 69.2292C51.949 69.9266 52.6288 70.3958 53.6139 70.6369C53.8869 70.747 55.7834 71.0122 59.3032 71.4325C62.8385 71.8017 66.2806 72.1568 69.6295 72.4977L74.7295 73.0322C74.9523 70.2601 74.2524 67.363 72.6298 64.3411L81.2971 59.6873C83.4491 64.0935 84.068 68.5528 83.1538 73.0651ZM65.0009 84.6732C67.5247 83.318 69.5584 81.9266 71.102 80.4988L55.0513 79.1703C53.3871 81.0906 53.0186 82.9142 53.9458 84.641L53.9993 84.7406C54.6769 86.0025 55.9537 86.7073 57.8299 86.8551C59.6882 86.9696 62.0786 86.2423 65.0009 84.6732Z" fill="white"/>
</svg>
