<svg width="37" height="51" viewBox="0 0 37 51" fill="none" xmlns="http://www.w3.org/2000/svg">
<path fill-rule="evenodd" clip-rule="evenodd" d="M5.42693 49.1195C7.08529 47.7325 12.5257 44.1982 14.2861 43.3569C16.6497 42.2178 17.012 41.7509 15.6815 41.5213C13.0204 41.0622 7.71367 44.8305 7.67467 44.6565C7.59665 44.3086 20.6686 25.4606 27.0627 16.1293C35.904 3.22423 37.1914 1.08786 36.4128 0.69397C34.7696 -0.115149 33.7765 0.798005 29.7034 6.98988C27.6422 10.1116 7.32987 39.4958 6.66569 40.5177C6.00151 41.5397 5.43345 42.3573 5.40978 42.3423C5.38612 42.3273 5.38058 41.5773 5.38319 40.6835C5.44058 36.9552 5.02568 35.8301 3.55586 35.7942C2.02371 35.752 1.74779 36.4229 1.75472 40.0758C1.76096 43.3634 1.60111 45.1859 1.05802 47.744C0.118787 52.1571 3.44029 50.7628 5.42693 49.1195Z" fill="black"/>
</svg>
