<svg width="470" height="424" viewBox="0 0 470 424" fill="none" xmlns="http://www.w3.org/2000/svg">
<path fill-rule="evenodd" clip-rule="evenodd" d="M268.086 4.6019C266.359 7.02357 260.339 13.6156 258.287 15.3461C255.534 17.6821 255.214 18.4294 257.065 18.2739C260.767 17.9629 266.528 11.1057 266.64 11.3239C266.865 11.7602 255.991 41.389 250.711 56.0308C243.41 76.2797 242.437 79.5707 243.61 79.8254C246.078 80.3332 247.084 78.7731 250.362 69.1162C252.025 64.2448 268.888 18.0764 269.418 16.4854C269.948 14.8944 270.421 13.6087 270.458 13.6204C270.495 13.6322 270.762 14.629 271.068 15.8202C272.284 20.8046 273.227 22.159 275.196 21.6974C277.251 21.2225 277.386 20.2335 276.111 15.3717C274.963 10.996 274.544 8.51385 274.381 4.91929C274.102 -1.28289 270.162 1.72513 268.086 4.6019Z" fill="black"/>
<rect y="146.202" width="429.373" height="280.69" rx="129.731" transform="rotate(-9.41005 0 146.202)"/>
</svg>
