<svg width="103" height="53" viewBox="0 0 103 53" fill="none" xmlns="http://www.w3.org/2000/svg">
<line x1="48.4214" y1="-4.78965e-08" x2="48.4214" y2="8.87031" stroke="#FFBA08" stroke-width="2.19149"/>
<line x1="52.5957" y1="-6.70551e-08" x2="52.5957" y2="8.87031" stroke="#FFBA08" stroke-width="2.19149"/>
<line x1="56.7701" y1="-6.70551e-08" x2="56.7701" y2="8.87031" stroke="#FFBA08" stroke-width="2.19149"/>
<path d="M2.97757 37.514C2.92993 36.4341 2.90611 35.2431 2.90611 33.9409C2.90611 32.6863 2.92993 31.3524 2.97757 29.939C3.02521 28.5257 3.09667 27.0965 3.19195 25.6513C3.28723 24.1904 3.41428 22.7691 3.57308 21.3875C3.319 21.451 3.07285 21.5145 2.83464 21.578C2.61232 21.6257 2.40587 21.6813 2.21531 21.7448L1.00046 17.9573C4.84351 17.0521 8.0434 16.5995 10.6001 16.5995C15.793 16.5995 18.3895 18.5766 18.3895 22.5309C18.3895 24.3889 17.7701 25.8657 16.5315 26.9615C15.2928 28.0413 13.4745 28.7242 11.0766 29.01C12.5217 30.2328 13.9747 31.2412 15.4357 32.0353C16.9126 32.8134 18.4053 33.4724 19.914 34.0124L17.2937 37.514C16.4521 37.2123 15.5707 36.7914 14.6496 36.2515C13.7286 35.7116 12.8155 35.116 11.9103 34.4649C11.0051 33.8139 10.1396 33.1548 9.31383 32.4878C8.50393 31.8209 7.78138 31.2015 7.14616 30.6298C7.13028 31.7256 7.1144 32.8372 7.09852 33.9647C7.09852 35.0763 7.09852 36.2277 7.09852 37.4187L6.9556 37.5616C6.35214 37.5616 5.70105 37.5616 5.00231 37.5616C4.31946 37.5775 3.70012 37.6093 3.14431 37.6569L2.97757 37.514ZM10.3858 20.387C9.94111 20.387 9.48058 20.4108 9.00416 20.4585C8.52775 20.4902 8.05134 20.5379 7.57493 20.6014C7.51141 21.4907 7.45583 22.3721 7.40819 23.2455C7.36055 24.103 7.32085 24.9606 7.28909 25.8181C7.98782 25.8022 8.74214 25.7625 9.55204 25.699C10.3778 25.6196 11.156 25.4767 11.8864 25.2702C12.6169 25.0479 13.2125 24.7303 13.673 24.3174C14.1494 23.9045 14.3876 23.3566 14.3876 22.6738C14.3876 21.8798 14.0621 21.3001 13.411 20.9349C12.7599 20.5696 11.7515 20.387 10.3858 20.387ZM25.6813 42.3257L22.1083 40.4201C22.9976 39.4355 23.863 38.4192 24.7047 37.3711C25.5464 36.3388 26.3483 35.2748 27.1106 34.1791C26.3642 33.1786 25.6178 32.1067 24.8714 30.9633C24.1251 29.8041 23.4343 28.6686 22.799 27.557C22.1638 26.4454 21.6477 25.4528 21.2507 24.5794L25.062 22.912C25.3478 23.6742 25.7131 24.5 26.1577 25.3893C26.6183 26.2786 27.1185 27.1838 27.6584 28.1049C28.2143 29.0259 28.7859 29.9073 29.3735 30.7489C31.0886 27.9699 32.5019 25.2305 33.6136 22.5309L37.5678 24.103C36.8532 25.4687 36.0433 26.9377 35.1381 28.5098C34.2488 30.0661 33.288 31.6541 32.2558 33.2739C31.2395 34.8778 30.1755 36.45 29.0639 37.9904C27.9522 39.5467 26.8247 40.9918 25.6813 42.3257ZM44.4886 37.8236C43.4722 37.8236 42.6306 37.641 41.9636 37.2758C41.3125 36.9264 40.7885 36.4421 40.3915 35.8227C40.0103 35.2034 39.7245 34.5126 39.5339 33.7503C39.3592 32.9722 39.2401 32.1702 39.1766 31.3445C39.129 30.5028 39.1051 29.6929 39.1051 28.9148C39.1051 28.0255 39.129 27.1203 39.1766 26.1992C39.2401 25.2782 39.3036 24.2698 39.3672 23.174L43.7263 22.912C43.6787 23.2455 43.6072 23.7457 43.5119 24.4127C43.4167 25.0797 43.3293 25.8419 43.2499 26.6995C43.1705 27.557 43.1308 28.4542 43.1308 29.3912C43.1308 30.9316 43.2658 32.075 43.5358 32.8213C43.8057 33.5518 44.2107 33.9171 44.7506 33.9171C45.8305 33.9171 46.6245 33.131 47.1327 31.5588C47.6408 29.9867 47.8949 27.5014 47.8949 24.103V23.0073L49.9197 22.9596L52.3732 22.912C52.1509 24.4047 51.9841 25.7784 51.873 27.0329C51.7618 28.2875 51.6903 29.3435 51.6586 30.2011C51.6268 31.0427 51.6109 31.6065 51.6109 31.8923C51.6109 32.6228 51.6744 33.1469 51.8015 33.4645C51.9285 33.7662 52.1509 33.9171 52.4685 33.9171C52.6273 33.9171 52.802 33.8853 52.9925 33.8218C53.1831 33.7583 53.4054 33.6471 53.6595 33.4883L53.4927 37.5854C52.8893 37.6807 52.3652 37.7284 51.9206 37.7284C51.1583 37.7284 50.5311 37.5854 50.0388 37.2996C49.5624 37.0137 49.1812 36.6326 48.8954 36.1562C48.4031 36.6803 47.7917 37.0852 47.0612 37.3711C46.3466 37.6728 45.489 37.8236 44.4886 37.8236ZM62.6268 37.8475C61.5469 37.8475 60.5465 37.7204 59.6254 37.4663C58.7044 37.2123 57.8706 36.8867 57.1243 36.4897C56.3779 36.0927 55.7109 35.6719 55.1233 35.2272L57.2672 31.7732C57.9342 32.3926 58.5773 32.869 59.1966 33.2025C59.816 33.5359 60.4591 33.7662 61.1261 33.8933C61.809 34.0203 62.5474 34.0838 63.3414 34.0838C64.0243 34.0838 64.5721 33.9965 64.985 33.8218C65.3979 33.6312 65.6044 33.393 65.6044 33.1072C65.6044 32.869 65.4059 32.6863 65.0089 32.5593C64.6118 32.4164 64.1037 32.2973 63.4843 32.202C62.865 32.0908 62.2139 31.9559 61.5311 31.797C60.5624 31.543 59.6572 31.2492 58.8155 30.9157C57.9739 30.5822 57.291 30.1296 56.767 29.5579C56.2588 28.9862 56.0047 28.224 56.0047 27.2711C56.0047 26.5089 56.1873 25.8419 56.5526 25.2702C56.9178 24.6826 57.4022 24.1983 58.0056 23.8172C58.625 23.4202 59.3237 23.1264 60.1018 22.9358C60.88 22.7452 61.6819 22.65 62.5077 22.65C63.9369 22.65 65.1677 22.8246 66.1999 23.174C67.248 23.5075 68.2485 23.9522 69.2013 24.508L67.0336 27.7952C66.5572 27.4617 66.0093 27.1759 65.39 26.9377C64.7865 26.6836 64.1751 26.493 63.5558 26.366C62.9524 26.223 62.3886 26.1516 61.8645 26.1516C61.2929 26.1516 60.8403 26.2389 60.5068 26.4136C60.1892 26.5883 60.0304 26.8344 60.0304 27.152C60.0304 27.3426 60.2289 27.5252 60.6259 27.6999C61.0388 27.8587 61.8169 28.0731 62.9603 28.3431C63.6431 28.5019 64.3657 28.6686 65.128 28.8433C65.8902 29.0021 66.6048 29.2324 67.2718 29.5341C67.9547 29.8199 68.5025 30.2408 68.9154 30.7966C69.3442 31.3365 69.5586 32.0591 69.5586 32.9643C69.5586 34.4888 68.9472 35.6798 67.7244 36.5373C66.5016 37.4108 64.8024 37.8475 62.6268 37.8475ZM78.5892 37.776C77.0647 37.776 75.7228 37.4743 74.5635 36.8708C73.4201 36.2833 72.5229 35.4575 71.8718 34.3935C71.2366 33.3295 70.919 32.0988 70.919 30.7013C70.919 29.8596 71.0619 28.9783 71.3477 28.0572C71.6336 27.1203 72.0941 26.2469 72.7293 25.437C73.3645 24.6271 74.1983 23.968 75.2305 23.4599C76.2786 22.9517 77.549 22.6976 79.0418 22.6976C80.1216 22.6976 81.0268 22.8167 81.7573 23.0549C82.5037 23.2931 83.1071 23.6028 83.5677 23.9839C84.0441 24.365 84.4014 24.77 84.6396 25.1988C84.8937 25.6275 85.0604 26.0404 85.1398 26.4374C85.2351 26.8186 85.2827 27.1362 85.2827 27.3902C85.2827 28.9306 84.6317 30.1217 83.3295 30.9633C82.0432 31.7891 80.2169 32.202 77.8507 32.202C77.3108 32.202 76.7947 32.1782 76.3024 32.1305C75.826 32.0829 75.3813 32.0273 74.9685 31.9638C75.2702 32.7578 75.7704 33.3454 76.4691 33.7265C77.1679 34.0918 77.8904 34.2744 78.6368 34.2744C79.7167 34.2744 80.6695 34.0838 81.4953 33.7027C82.3211 33.3057 83.0992 32.7022 83.8297 31.8923L85.9497 34.9414C85.4415 35.3542 84.8699 35.783 84.2346 36.2277C83.6153 36.6723 82.853 37.0376 81.9479 37.3234C81.0427 37.6251 79.9231 37.776 78.5892 37.776ZM79.1132 26.2707C78.1763 26.2707 77.3505 26.5089 76.6359 26.9853C75.9213 27.4617 75.3972 28.089 75.0637 28.8671C75.4607 28.9306 75.8498 28.9862 76.2309 29.0339C76.6279 29.0656 77.017 29.0815 77.3981 29.0815C77.7475 29.0815 78.1445 29.0497 78.5892 28.9862C79.0497 28.9227 79.4944 28.8274 79.9231 28.7004C80.3678 28.5733 80.733 28.4145 81.0189 28.224C81.3047 28.0175 81.4476 27.7793 81.4476 27.5094C81.4476 27.3823 81.3841 27.2235 81.2571 27.0329C81.13 26.8424 80.8998 26.6677 80.5663 26.5089C80.2328 26.3501 79.7484 26.2707 79.1132 26.2707ZM87.9858 37.5854C87.9382 36.188 87.8985 34.8937 87.8667 33.7027C87.8508 32.5117 87.8429 31.3365 87.8429 30.1773C87.8429 29.018 87.8508 27.8587 87.8667 26.6995C87.8985 25.5243 87.9461 24.2698 88.0096 22.9358H92.0353C91.9718 23.6504 91.9162 24.373 91.8686 25.1035C92.4085 24.4206 93.0517 23.8569 93.798 23.4122C94.5444 22.9517 95.4258 22.7214 96.4421 22.7214C97.4426 22.7214 98.2604 22.8882 98.8956 23.2217C99.5467 23.5551 100.055 24.0157 100.42 24.6032C100.801 25.1908 101.071 25.8657 101.23 26.628C101.405 27.3744 101.516 28.1843 101.564 29.0577C101.611 29.9152 101.635 30.7807 101.635 31.6541C101.635 32.6069 101.619 33.5201 101.587 34.3935C101.556 35.2669 101.524 35.9974 101.492 36.585C101.46 37.1726 101.436 37.5219 101.421 37.6331H97.4188C97.4505 36.982 97.4823 36.2912 97.514 35.5607C97.5458 34.8143 97.5776 34.0838 97.6093 33.3692C97.6411 32.6387 97.657 31.9797 97.657 31.3921C97.657 28.0096 97.1091 26.3183 96.0133 26.3183C95.1082 26.3183 94.2824 26.7153 93.536 27.5094C92.8055 28.2875 92.1941 29.2721 91.7018 30.4631C91.7018 30.6219 91.7018 30.7807 91.7018 30.9395C91.7018 31.7018 91.7018 32.4958 91.7018 33.3216C91.7177 34.1315 91.7336 34.9096 91.7495 35.656C91.7812 36.3865 91.805 37.0217 91.8209 37.5616L87.9858 37.5854Z" fill="#03071E"/>
<path d="M45.9221 48.3134C50.7702 53.403 53.1038 52.2838 57.0778 48.3134" stroke="#03071E" stroke-width="2.15916"/>
</svg>
