<svg width="683" height="119" viewBox="0 0 683 119" fill="none" xmlns="http://www.w3.org/2000/svg">
<path d="M77.3364 19.1922C62.6497 30.6599 47.7693 41.9787 37.2051 57.6429C29.3841 69.2396 23.4817 85.5062 36.1865 96.0936C49.8279 107.461 72.2725 110.62 89.2027 112.391C111.613 114.734 134.289 114.447 156.784 114.53C181.845 114.621 206.946 114.81 232.005 114.326C284.221 113.317 336.479 109.451 388.609 106.483C449.068 103.04 509.597 99.3 569.811 92.7323C598.053 89.6519 626.703 87.1872 652.315 73.9399C659.459 70.2442 680.637 60.9665 678.899 49.5453C677.323 39.1904 656.868 37.351 649.259 34.6234C640.211 31.3798 632.099 26.1064 623.082 22.859C610.952 18.4904 597.87 16.4933 585.191 14.6596C560.744 11.1235 536.115 9.06977 511.447 7.88613C452.123 5.03944 392.374 4.30478 332.995 4.9323C281.261 5.47903 229.469 8.47729 178.429 17.2569C143.616 23.2451 109.053 31.0995 74.79 39.6653C56.53 44.2303 37.3694 48.3349 19.9405 55.6567C16.9861 56.8978 14.0598 58.2993 11.4355 60.1383C3.31222 65.831 10.2446 63.1511 4 69.611" stroke="#FFBA08" stroke-width="8" stroke-linecap="round" stroke-linejoin="round"/>
</svg>
